<mxfile host="app.diagrams.net" modified="2023-04-11T10:42:59.088Z" agent="Mozilla/5.0 (Windows NT 10.0; Win64; x64) AppleWebKit/537.36 (KHTML, like Gecko) Chrome/111.0.0.0 Safari/537.36" etag="0yP62Q6sS-72MNggl6SK" version="21.1.5" type="github">
  <diagram id="prtHgNgQTEPvFCAcTncT" name="Page-1">
    <mxGraphModel dx="2261" dy="796" grid="1" gridSize="10" guides="1" tooltips="1" connect="1" arrows="1" fold="1" page="1" pageScale="1" pageWidth="827" pageHeight="1169" math="0" shadow="0">
      <root>
        <mxCell id="0" />
        <mxCell id="1" parent="0" />
        <object placeholders="1" c4Name="Mesh1" c4Type="ContainerScopeBoundary" c4Application="IstioMesh" label="&lt;font style=&quot;font-size: 16px&quot;&gt;&lt;b&gt;&lt;div style=&quot;text-align: left&quot;&gt;%c4Name%&lt;/div&gt;&lt;/b&gt;&lt;/font&gt;&lt;div style=&quot;text-align: left&quot;&gt;[%c4Application%]&lt;/div&gt;" id="DROLrl2719gJAt6fMp63-2">
          <mxCell style="rounded=1;fontSize=11;whiteSpace=wrap;html=1;dashed=1;arcSize=20;fillColor=none;strokeColor=#666666;fontColor=#333333;labelBackgroundColor=none;align=left;verticalAlign=bottom;labelBorderColor=none;spacingTop=0;spacing=10;dashPattern=8 4;metaEdit=1;rotatable=0;perimeter=rectanglePerimeter;noLabel=0;labelPadding=0;allowArrows=0;connectable=0;expand=0;recursiveResize=0;editable=1;pointerEvents=0;absoluteArcSize=1;points=[[0.25,0,0],[0.5,0,0],[0.75,0,0],[1,0.25,0],[1,0.5,0],[1,0.75,0],[0.75,1,0],[0.5,1,0],[0.25,1,0],[0,0.75,0],[0,0.5,0],[0,0.25,0]];" parent="1" vertex="1">
            <mxGeometry x="-30" y="80" width="1140" height="770" as="geometry" />
          </mxCell>
        </object>
        <mxCell id="DROLrl2719gJAt6fMp63-4" value="" style="shape=mxgraph.mockup.containers.marginRect;rectMarginTop=10;strokeColor=#666666;strokeWidth=1;dashed=0;rounded=1;arcSize=5;recursiveResize=0;resizeWidth=1;resizeHeight=1;" parent="1" vertex="1">
          <mxGeometry x="20" y="130" width="381.07" height="630" as="geometry" />
        </mxCell>
        <mxCell id="DROLrl2719gJAt6fMp63-5" value="Primary" style="shape=rect;strokeColor=none;fillColor=#008cff;strokeWidth=1;dashed=0;rounded=1;arcSize=20;fontColor=#ffffff;fontSize=17;spacing=2;spacingTop=-2;align=left;autosize=1;spacingLeft=4;resizeWidth=0;resizeHeight=0;perimeter=none;" parent="DROLrl2719gJAt6fMp63-4" vertex="1">
          <mxGeometry x="5" width="80" height="30" as="geometry" />
        </mxCell>
        <object placeholders="1" c4Name="Api Server" c4Type="Primary,Follow kube config " c4Technology="" c4Description="" label="&lt;font style=&quot;font-size: 16px&quot;&gt;&lt;b&gt;%c4Name%&lt;/b&gt;&lt;/font&gt;&lt;div&gt;[%c4Type%: %c4Technology%]&lt;/div&gt;&lt;br&gt;&lt;div&gt;&lt;font style=&quot;font-size: 11px&quot;&gt;%c4Description%&lt;/font&gt;&lt;/div&gt;" id="DROLrl2719gJAt6fMp63-15">
          <mxCell style="rounded=1;whiteSpace=wrap;html=1;labelBackgroundColor=none;fillColor=#63BEF2;fontColor=#ffffff;align=center;arcSize=14;strokeColor=#2086C9;metaEdit=1;resizable=1;points=[[0.25,0,0],[0.5,0,0],[0.75,0,0],[1,0.25,0],[1,0.5,0],[1,0.75,0],[0.75,1,0],[0.5,1,0],[0.25,1,0],[0,0.75,0],[0,0.5,0],[0,0.25,0]];resizeHeight=1;resizeWidth=1;" parent="DROLrl2719gJAt6fMp63-4" vertex="1">
            <mxGeometry x="75.53999999999999" y="50" width="170" height="60" as="geometry" />
          </mxCell>
        </object>
        <mxCell id="DROLrl2719gJAt6fMp63-142" value="Config&lt;br&gt;Endpoints" style="edgeStyle=orthogonalEdgeStyle;rounded=0;orthogonalLoop=1;jettySize=auto;html=1;entryX=0;entryY=0.5;entryDx=0;entryDy=0;entryPerimeter=0;fontSize=10;exitX=0;exitY=0.5;exitDx=0;exitDy=0;exitPerimeter=0;endArrow=classic;endFill=0;strokeColor=#FF0000;" parent="DROLrl2719gJAt6fMp63-4" source="DROLrl2719gJAt6fMp63-18" target="DROLrl2719gJAt6fMp63-15" edge="1">
          <mxGeometry relative="1" as="geometry" />
        </mxCell>
        <mxCell id="DROLrl2719gJAt6fMp63-158" style="edgeStyle=orthogonalEdgeStyle;rounded=0;orthogonalLoop=1;jettySize=auto;html=1;entryX=0.5;entryY=0;entryDx=0;entryDy=0;entryPerimeter=0;dashed=1;strokeColor=#FF0000;fontSize=10;endArrow=classic;endFill=0;" parent="DROLrl2719gJAt6fMp63-4" source="DROLrl2719gJAt6fMp63-18" target="DROLrl2719gJAt6fMp63-111" edge="1">
          <mxGeometry relative="1" as="geometry" />
        </mxCell>
        <mxCell id="DROLrl2719gJAt6fMp63-159" value="XDS" style="edgeLabel;html=1;align=center;verticalAlign=middle;resizable=0;points=[];fontSize=10;" parent="DROLrl2719gJAt6fMp63-158" vertex="1" connectable="0">
          <mxGeometry x="-0.1159" y="3" relative="1" as="geometry">
            <mxPoint as="offset" />
          </mxGeometry>
        </mxCell>
        <object placeholders="1" c4Name="Istiod" c4Type="Pod" c4Technology="" c4Description="" label="&lt;font style=&quot;font-size: 16px&quot;&gt;&lt;b&gt;%c4Name%&lt;/b&gt;&lt;/font&gt;&lt;div&gt;[%c4Type%: %c4Technology%]&lt;/div&gt;&lt;br&gt;&lt;div&gt;&lt;font style=&quot;font-size: 11px&quot;&gt;%c4Description%&lt;/font&gt;&lt;/div&gt;" id="DROLrl2719gJAt6fMp63-18">
          <mxCell style="rounded=1;whiteSpace=wrap;html=1;labelBackgroundColor=none;fillColor=#63BEF2;fontColor=#ffffff;align=center;arcSize=14;strokeColor=#2086C9;metaEdit=1;resizable=1;points=[[0.25,0,0],[0.5,0,0],[0.75,0,0],[1,0.25,0],[1,0.5,0],[1,0.75,0],[0.75,1,0],[0.5,1,0],[0.25,1,0],[0,0.75,0],[0,0.5,0],[0,0.25,0]];resizeHeight=1;resizeWidth=1;" parent="DROLrl2719gJAt6fMp63-4" vertex="1">
            <mxGeometry x="75.53999999999999" y="150" width="170" height="60" as="geometry" />
          </mxCell>
        </object>
        <mxCell id="DROLrl2719gJAt6fMp63-8" value="network1" style="strokeWidth=1;shadow=0;dashed=0;align=center;html=1;shape=mxgraph.mockup.text.textBox;fontColor=#666666;align=left;fontSize=17;spacingLeft=4;spacingTop=-3;strokeColor=#666666;mainText=" parent="DROLrl2719gJAt6fMp63-4" vertex="1">
          <mxGeometry x="115.54000000000002" width="90" height="20" as="geometry" />
        </mxCell>
        <mxCell id="DROLrl2719gJAt6fMp63-119" value="http" style="edgeStyle=orthogonalEdgeStyle;rounded=0;orthogonalLoop=1;jettySize=auto;html=1;endArrow=diamondThin;endFill=1;strokeColor=#00CC00;" parent="DROLrl2719gJAt6fMp63-4" source="DROLrl2719gJAt6fMp63-111" target="DROLrl2719gJAt6fMp63-113" edge="1">
          <mxGeometry relative="1" as="geometry" />
        </mxCell>
        <object placeholders="1" c4Name="Sleep" c4Type="Pod" c4Description="sleep istio-agent envoy" label="&lt;font style=&quot;font-size: 16px&quot;&gt;&lt;b&gt;%c4Name%&lt;/b&gt;&lt;/font&gt;&lt;div&gt;[%c4Type%]&lt;/div&gt;&lt;br&gt;&lt;div&gt;&lt;font style=&quot;font-size: 11px&quot;&gt;&lt;font color=&quot;#cccccc&quot;&gt;%c4Description%&lt;/font&gt;&lt;/div&gt;" id="DROLrl2719gJAt6fMp63-111">
          <mxCell style="rounded=1;whiteSpace=wrap;html=1;labelBackgroundColor=none;fillColor=#8C8496;fontColor=#ffffff;align=center;arcSize=10;strokeColor=#736782;metaEdit=1;resizable=1;points=[[0.25,0,0],[0.5,0,0],[0.75,0,0],[1,0.25,0],[1,0.5,0],[1,0.75,0],[0.75,1,0],[0.5,1,0],[0.25,1,0],[0,0.75,0],[0,0.5,0],[0,0.25,0]];" parent="DROLrl2719gJAt6fMp63-4" vertex="1">
            <mxGeometry x="20" y="305" width="100" height="80" as="geometry" />
          </mxCell>
        </object>
        <mxCell id="DROLrl2719gJAt6fMp63-155" style="edgeStyle=orthogonalEdgeStyle;rounded=0;orthogonalLoop=1;jettySize=auto;html=1;exitX=0.5;exitY=1;exitDx=0;exitDy=0;exitPerimeter=0;entryX=0.549;entryY=1.067;entryDx=0;entryDy=0;entryPerimeter=0;fontSize=10;dashed=1;" parent="DROLrl2719gJAt6fMp63-4" source="DROLrl2719gJAt6fMp63-113" target="DROLrl2719gJAt6fMp63-129" edge="1">
          <mxGeometry relative="1" as="geometry" />
        </mxCell>
        <object placeholders="1" c4Name="Helloworld-v1" c4Type="Pod" c4Description="helloworld istio-agent envoy" label="&lt;font style=&quot;font-size: 16px&quot;&gt;&lt;b&gt;%c4Name%&lt;/b&gt;&lt;/font&gt;&lt;div&gt;[%c4Type%]&lt;/div&gt;&lt;br&gt;&lt;div&gt;&lt;font style=&quot;font-size: 11px&quot;&gt;&lt;font color=&quot;#cccccc&quot;&gt;%c4Description%&lt;/font&gt;&lt;/div&gt;" id="DROLrl2719gJAt6fMp63-113">
          <mxCell style="rounded=1;whiteSpace=wrap;html=1;labelBackgroundColor=none;fillColor=#8C8496;fontColor=#ffffff;align=center;arcSize=10;strokeColor=#736782;metaEdit=1;resizable=1;points=[[0.25,0,0],[0.5,0,0],[0.75,0,0],[1,0.25,0],[1,0.5,0],[1,0.75,0],[0.75,1,0],[0.5,1,0],[0.25,1,0],[0,0.75,0],[0,0.5,0],[0,0.25,0]];" parent="DROLrl2719gJAt6fMp63-4" vertex="1">
            <mxGeometry x="20.54" y="460" width="100" height="100" as="geometry" />
          </mxCell>
        </object>
        <mxCell id="DROLrl2719gJAt6fMp63-126" value="&lt;font style=&quot;font-size: 10px;&quot;&gt;LDS&lt;/font&gt;" style="strokeWidth=1;shadow=0;dashed=0;align=center;html=1;shape=mxgraph.mockup.text.textBox;fontColor=#666666;align=left;fontSize=17;spacingLeft=4;spacingTop=-3;strokeColor=#666666;mainText=;fillColor=#7DD4FF;" parent="DROLrl2719gJAt6fMp63-4" vertex="1">
          <mxGeometry x="115.53999999999999" y="315" width="70" height="15" as="geometry" />
        </mxCell>
        <mxCell id="DROLrl2719gJAt6fMp63-127" value="&lt;span style=&quot;font-size: 10px;&quot;&gt;RDS&lt;/span&gt;" style="strokeWidth=1;shadow=0;dashed=0;align=center;html=1;shape=mxgraph.mockup.text.textBox;fontColor=#666666;align=left;fontSize=17;spacingLeft=4;spacingTop=-3;strokeColor=#666666;mainText=;fillColor=#7DD4FF;" parent="DROLrl2719gJAt6fMp63-4" vertex="1">
          <mxGeometry x="115.53999999999999" y="330" width="70" height="15" as="geometry" />
        </mxCell>
        <mxCell id="DROLrl2719gJAt6fMp63-128" value="&lt;span style=&quot;font-size: 10px;&quot;&gt;CDS&lt;/span&gt;" style="strokeWidth=1;shadow=0;dashed=0;align=center;html=1;shape=mxgraph.mockup.text.textBox;fontColor=#666666;align=left;fontSize=17;spacingLeft=4;spacingTop=-3;strokeColor=#666666;mainText=;fillColor=#7DD4FF;" parent="DROLrl2719gJAt6fMp63-4" vertex="1">
          <mxGeometry x="115.53999999999999" y="345" width="70" height="15" as="geometry" />
        </mxCell>
        <mxCell id="DROLrl2719gJAt6fMp63-129" value="&lt;span style=&quot;font-size: 10px;&quot;&gt;EDS&lt;/span&gt;" style="strokeWidth=1;shadow=0;dashed=0;align=center;html=1;shape=mxgraph.mockup.text.textBox;fontColor=#666666;align=left;fontSize=17;spacingLeft=4;spacingTop=-3;strokeColor=#666666;mainText=;fillColor=#7DD4FF;" parent="DROLrl2719gJAt6fMp63-4" vertex="1">
          <mxGeometry x="115.53999999999999" y="360" width="70" height="15" as="geometry" />
        </mxCell>
        <mxCell id="DROLrl2719gJAt6fMp63-130" value="&lt;font style=&quot;font-size: 10px;&quot;&gt;LDS&lt;/font&gt;" style="strokeWidth=1;shadow=0;dashed=0;align=center;html=1;shape=mxgraph.mockup.text.textBox;fontColor=#666666;align=left;fontSize=17;spacingLeft=4;spacingTop=-3;strokeColor=#666666;mainText=;fillColor=#7DD4FF;" parent="DROLrl2719gJAt6fMp63-4" vertex="1">
          <mxGeometry x="115.53999999999999" y="480" width="70" height="15" as="geometry" />
        </mxCell>
        <mxCell id="DROLrl2719gJAt6fMp63-131" value="&lt;span style=&quot;font-size: 10px;&quot;&gt;RDS&lt;/span&gt;" style="strokeWidth=1;shadow=0;dashed=0;align=center;html=1;shape=mxgraph.mockup.text.textBox;fontColor=#666666;align=left;fontSize=17;spacingLeft=4;spacingTop=-3;strokeColor=#666666;mainText=;fillColor=#7DD4FF;" parent="DROLrl2719gJAt6fMp63-4" vertex="1">
          <mxGeometry x="115.53999999999999" y="495" width="70" height="15" as="geometry" />
        </mxCell>
        <mxCell id="DROLrl2719gJAt6fMp63-132" value="&lt;span style=&quot;font-size: 10px;&quot;&gt;CDS&lt;/span&gt;" style="strokeWidth=1;shadow=0;dashed=0;align=center;html=1;shape=mxgraph.mockup.text.textBox;fontColor=#666666;align=left;fontSize=17;spacingLeft=4;spacingTop=-3;strokeColor=#666666;mainText=;fillColor=#7DD4FF;" parent="DROLrl2719gJAt6fMp63-4" vertex="1">
          <mxGeometry x="115.53999999999999" y="510" width="70" height="15" as="geometry" />
        </mxCell>
        <mxCell id="DROLrl2719gJAt6fMp63-133" value="&lt;span style=&quot;font-size: 10px;&quot;&gt;EDS&lt;/span&gt;" style="strokeWidth=1;shadow=0;dashed=0;align=center;html=1;shape=mxgraph.mockup.text.textBox;fontColor=#666666;align=left;fontSize=17;spacingLeft=4;spacingTop=-3;strokeColor=#666666;mainText=;fillColor=#7DD4FF;" parent="DROLrl2719gJAt6fMp63-4" vertex="1">
          <mxGeometry x="115.53999999999999" y="525" width="70" height="15" as="geometry" />
        </mxCell>
        <mxCell id="DROLrl2719gJAt6fMp63-6" value="" style="shape=mxgraph.mockup.containers.marginRect;rectMarginTop=10;strokeColor=#666666;strokeWidth=1;dashed=0;rounded=1;arcSize=5;recursiveResize=0;" parent="1" vertex="1">
          <mxGeometry x="625" y="130" width="375" height="630" as="geometry" />
        </mxCell>
        <mxCell id="DROLrl2719gJAt6fMp63-7" value="Follow" style="shape=rect;strokeColor=none;fillColor=#008cff;strokeWidth=1;dashed=0;rounded=1;arcSize=20;fontColor=#ffffff;fontSize=17;spacing=2;spacingTop=-2;align=left;autosize=1;spacingLeft=4;resizeWidth=0;resizeHeight=0;perimeter=none;" parent="DROLrl2719gJAt6fMp63-6" vertex="1">
          <mxGeometry x="5" width="70" height="30" as="geometry" />
        </mxCell>
        <mxCell id="DROLrl2719gJAt6fMp63-9" value="network2" style="strokeWidth=1;shadow=0;dashed=0;align=center;html=1;shape=mxgraph.mockup.text.textBox;fontColor=#666666;align=left;fontSize=17;spacingLeft=4;spacingTop=-3;strokeColor=#666666;mainText=" parent="DROLrl2719gJAt6fMp63-6" vertex="1">
          <mxGeometry x="120" width="90" height="20" as="geometry" />
        </mxCell>
        <mxCell id="DROLrl2719gJAt6fMp63-98" value="EastGateway" style="shape=table;startSize=30;container=1;collapsible=0;childLayout=tableLayout;fontSize=16;align=left;verticalAlign=top;fillColor=none;strokeColor=none;fontColor=#4D4D4D;fontStyle=1;spacingLeft=6;spacing=0;resizable=1;" parent="DROLrl2719gJAt6fMp63-6" vertex="1">
          <mxGeometry x="-61" y="272" width="120" height="60" as="geometry" />
        </mxCell>
        <mxCell id="DROLrl2719gJAt6fMp63-105" value="" style="shape=tableRow;horizontal=0;startSize=0;swimlaneHead=0;swimlaneBody=0;strokeColor=inherit;top=0;left=0;bottom=0;right=0;collapsible=0;dropTarget=0;fillColor=none;points=[[0,0.5],[1,0.5]];portConstraint=eastwest;fontSize=12;" parent="DROLrl2719gJAt6fMp63-98" vertex="1">
          <mxGeometry y="30" width="120" height="30" as="geometry" />
        </mxCell>
        <mxCell id="DROLrl2719gJAt6fMp63-106" value="Gateway&lt;br&gt;(User service)" style="shape=partialRectangle;html=1;whiteSpace=wrap;connectable=0;strokeColor=inherit;overflow=hidden;fillColor=#7dbef2;top=0;left=0;bottom=0;right=0;pointerEvents=1;fontSize=12;align=left;fontColor=#FFFFFF;gradientColor=none;spacingLeft=10;spacingRight=4;" parent="DROLrl2719gJAt6fMp63-105" vertex="1">
          <mxGeometry width="120" height="30" as="geometry">
            <mxRectangle width="120" height="30" as="alternateBounds" />
          </mxGeometry>
        </mxCell>
        <mxCell id="DROLrl2719gJAt6fMp63-148" style="edgeStyle=orthogonalEdgeStyle;rounded=0;orthogonalLoop=1;jettySize=auto;html=1;exitX=0.5;exitY=0;exitDx=0;exitDy=0;exitPerimeter=0;entryX=0.5;entryY=1;entryDx=0;entryDy=0;entryPerimeter=0;fontSize=10;endArrow=classic;endFill=0;strokeColor=#FF0000;" parent="DROLrl2719gJAt6fMp63-6" source="DROLrl2719gJAt6fMp63-107" target="DROLrl2719gJAt6fMp63-109" edge="1">
          <mxGeometry relative="1" as="geometry" />
        </mxCell>
        <object placeholders="1" c4Name="Istiod" c4Type="Service" c4Technology="" c4Description="" label="&lt;font style=&quot;font-size: 16px&quot;&gt;&lt;b&gt;%c4Name%&lt;/b&gt;&lt;/font&gt;&lt;div&gt;[%c4Type%: %c4Technology%]&lt;/div&gt;&lt;br&gt;&lt;div&gt;&lt;font style=&quot;font-size: 11px&quot;&gt;%c4Description%&lt;/font&gt;&lt;/div&gt;" id="DROLrl2719gJAt6fMp63-107">
          <mxCell style="rounded=1;whiteSpace=wrap;html=1;labelBackgroundColor=none;fillColor=#63BEF2;fontColor=#ffffff;align=center;arcSize=14;strokeColor=#2086C9;metaEdit=1;resizable=1;points=[[0.25,0,0],[0.5,0,0],[0.75,0,0],[1,0.25,0],[1,0.5,0],[1,0.75,0],[0.75,1,0],[0.5,1,0],[0.25,1,0],[0,0.75,0],[0,0.5,0],[0,0.25,0]];resizeHeight=1;resizeWidth=1;" parent="DROLrl2719gJAt6fMp63-6" vertex="1">
            <mxGeometry x="120" y="260" width="170" height="60" as="geometry" />
          </mxCell>
        </object>
        <object placeholders="1" c4Name="Istiod" c4Type="Endpoint" c4Technology="remotePilotAddress" c4Description="Primary eastgateway elb address" label="&lt;font style=&quot;font-size: 16px&quot;&gt;&lt;b&gt;%c4Name%&lt;/b&gt;&lt;/font&gt;&lt;div&gt;[%c4Type%: %c4Technology%]&lt;/div&gt;&lt;br&gt;&lt;div&gt;&lt;font style=&quot;font-size: 11px&quot;&gt;%c4Description%&lt;/font&gt;&lt;/div&gt;" id="DROLrl2719gJAt6fMp63-109">
          <mxCell style="rounded=1;whiteSpace=wrap;html=1;labelBackgroundColor=none;fillColor=#63BEF2;fontColor=#ffffff;align=center;arcSize=14;strokeColor=#2086C9;metaEdit=1;resizable=1;points=[[0.25,0,0],[0.5,0,0],[0.75,0,0],[1,0.25,0],[1,0.5,0],[1,0.75,0],[0.75,1,0],[0.5,1,0],[0.25,1,0],[0,0.75,0],[0,0.5,0],[0,0.25,0]];resizeHeight=1;resizeWidth=1;" parent="DROLrl2719gJAt6fMp63-6" vertex="1">
            <mxGeometry x="120" y="140" width="170" height="80" as="geometry" />
          </mxCell>
        </object>
        <object placeholders="1" c4Name="Api Server" c4Type="Follow kube config " c4Technology="" c4Description="" label="&lt;font style=&quot;font-size: 16px&quot;&gt;&lt;b&gt;%c4Name%&lt;/b&gt;&lt;/font&gt;&lt;div&gt;[%c4Type%: %c4Technology%]&lt;/div&gt;&lt;br&gt;&lt;div&gt;&lt;font style=&quot;font-size: 11px&quot;&gt;%c4Description%&lt;/font&gt;&lt;/div&gt;" id="DROLrl2719gJAt6fMp63-16">
          <mxCell style="rounded=1;whiteSpace=wrap;html=1;labelBackgroundColor=none;fillColor=#63BEF2;fontColor=#ffffff;align=center;arcSize=14;strokeColor=#2086C9;metaEdit=1;resizable=1;points=[[0.25,0,0],[0.5,0,0],[0.75,0,0],[1,0.25,0],[1,0.5,0],[1,0.75,0],[0.75,1,0],[0.5,1,0],[0.25,1,0],[0,0.75,0],[0,0.5,0],[0,0.25,0]];resizeHeight=1;resizeWidth=1;" parent="DROLrl2719gJAt6fMp63-6" vertex="1">
            <mxGeometry x="120" y="50" width="170" height="60" as="geometry" />
          </mxCell>
        </object>
        <mxCell id="DROLrl2719gJAt6fMp63-149" style="edgeStyle=orthogonalEdgeStyle;rounded=0;orthogonalLoop=1;jettySize=auto;html=1;exitX=0;exitY=0.5;exitDx=0;exitDy=0;exitPerimeter=0;entryX=1;entryY=0.75;entryDx=0;entryDy=0;fontSize=10;dashed=1;" parent="DROLrl2719gJAt6fMp63-6" source="DROLrl2719gJAt6fMp63-114" target="DROLrl2719gJAt6fMp63-98" edge="1">
          <mxGeometry relative="1" as="geometry" />
        </mxCell>
        <object placeholders="1" c4Name="Sleep" c4Type="Pod" c4Description="sleep istio-agent envoy" label="&lt;font style=&quot;font-size: 16px&quot;&gt;&lt;b&gt;%c4Name%&lt;/b&gt;&lt;/font&gt;&lt;div&gt;[%c4Type%]&lt;/div&gt;&lt;br&gt;&lt;div&gt;&lt;font style=&quot;font-size: 11px&quot;&gt;&lt;font color=&quot;#cccccc&quot;&gt;%c4Description%&lt;/font&gt;&lt;/div&gt;" id="DROLrl2719gJAt6fMp63-114">
          <mxCell style="rounded=1;whiteSpace=wrap;html=1;labelBackgroundColor=none;fillColor=#8C8496;fontColor=#ffffff;align=center;arcSize=10;strokeColor=#736782;metaEdit=1;resizable=1;points=[[0.25,0,0],[0.5,0,0],[0.75,0,0],[1,0.25,0],[1,0.5,0],[1,0.75,0],[0.75,1,0],[0.5,1,0],[0.25,1,0],[0,0.75,0],[0,0.5,0],[0,0.25,0]];" parent="DROLrl2719gJAt6fMp63-6" vertex="1">
            <mxGeometry x="104.73000000000002" y="369.5" width="100" height="80" as="geometry" />
          </mxCell>
        </object>
        <mxCell id="DROLrl2719gJAt6fMp63-150" style="edgeStyle=orthogonalEdgeStyle;rounded=0;orthogonalLoop=1;jettySize=auto;html=1;fontSize=10;dashed=1;" parent="DROLrl2719gJAt6fMp63-6" source="DROLrl2719gJAt6fMp63-117" target="DROLrl2719gJAt6fMp63-105" edge="1">
          <mxGeometry relative="1" as="geometry">
            <Array as="points">
              <mxPoint x="75" y="560" />
              <mxPoint x="75" y="317" />
            </Array>
          </mxGeometry>
        </mxCell>
        <object placeholders="1" c4Name="Helloworld-v2" c4Type="Pod" c4Description="helloworld istio-agent envoy" label="&lt;font style=&quot;font-size: 16px&quot;&gt;&lt;b&gt;%c4Name%&lt;/b&gt;&lt;/font&gt;&lt;div&gt;[%c4Type%]&lt;/div&gt;&lt;br&gt;&lt;div&gt;&lt;font style=&quot;font-size: 11px&quot;&gt;&lt;font color=&quot;#cccccc&quot;&gt;%c4Description%&lt;/font&gt;&lt;/div&gt;" id="DROLrl2719gJAt6fMp63-117">
          <mxCell style="rounded=1;whiteSpace=wrap;html=1;labelBackgroundColor=none;fillColor=#8C8496;fontColor=#ffffff;align=center;arcSize=10;strokeColor=#736782;metaEdit=1;resizable=1;points=[[0.25,0,0],[0.5,0,0],[0.75,0,0],[1,0.25,0],[1,0.5,0],[1,0.75,0],[0.75,1,0],[0.5,1,0],[0.25,1,0],[0,0.75,0],[0,0.5,0],[0,0.25,0]];" parent="DROLrl2719gJAt6fMp63-6" vertex="1">
            <mxGeometry x="106.27000000000002" y="510" width="100" height="100" as="geometry" />
          </mxCell>
        </object>
        <mxCell id="DROLrl2719gJAt6fMp63-134" value="&lt;font style=&quot;font-size: 10px;&quot;&gt;LDS&lt;/font&gt;" style="strokeWidth=1;shadow=0;dashed=0;align=center;html=1;shape=mxgraph.mockup.text.textBox;fontColor=#666666;align=left;fontSize=17;spacingLeft=4;spacingTop=-3;strokeColor=#666666;mainText=;fillColor=#7DD4FF;" parent="DROLrl2719gJAt6fMp63-6" vertex="1">
          <mxGeometry x="202" y="379.5" width="70" height="15" as="geometry" />
        </mxCell>
        <mxCell id="DROLrl2719gJAt6fMp63-135" value="&lt;span style=&quot;font-size: 10px;&quot;&gt;RDS&lt;/span&gt;" style="strokeWidth=1;shadow=0;dashed=0;align=center;html=1;shape=mxgraph.mockup.text.textBox;fontColor=#666666;align=left;fontSize=17;spacingLeft=4;spacingTop=-3;strokeColor=#666666;mainText=;fillColor=#7DD4FF;" parent="DROLrl2719gJAt6fMp63-6" vertex="1">
          <mxGeometry x="202" y="394.5" width="70" height="15" as="geometry" />
        </mxCell>
        <mxCell id="DROLrl2719gJAt6fMp63-136" value="&lt;span style=&quot;font-size: 10px;&quot;&gt;CDS&lt;/span&gt;" style="strokeWidth=1;shadow=0;dashed=0;align=center;html=1;shape=mxgraph.mockup.text.textBox;fontColor=#666666;align=left;fontSize=17;spacingLeft=4;spacingTop=-3;strokeColor=#666666;mainText=;fillColor=#7DD4FF;" parent="DROLrl2719gJAt6fMp63-6" vertex="1">
          <mxGeometry x="202" y="409.5" width="70" height="15" as="geometry" />
        </mxCell>
        <mxCell id="DROLrl2719gJAt6fMp63-137" value="&lt;span style=&quot;font-size: 10px;&quot;&gt;EDS&lt;/span&gt;" style="strokeWidth=1;shadow=0;dashed=0;align=center;html=1;shape=mxgraph.mockup.text.textBox;fontColor=#666666;align=left;fontSize=17;spacingLeft=4;spacingTop=-3;strokeColor=#666666;mainText=;fillColor=#7DD4FF;" parent="DROLrl2719gJAt6fMp63-6" vertex="1">
          <mxGeometry x="202" y="424.5" width="70" height="15" as="geometry" />
        </mxCell>
        <mxCell id="DROLrl2719gJAt6fMp63-138" value="&lt;font style=&quot;font-size: 10px;&quot;&gt;LDS&lt;/font&gt;" style="strokeWidth=1;shadow=0;dashed=0;align=center;html=1;shape=mxgraph.mockup.text.textBox;fontColor=#666666;align=left;fontSize=17;spacingLeft=4;spacingTop=-3;strokeColor=#666666;mainText=;fillColor=#7DD4FF;" parent="DROLrl2719gJAt6fMp63-6" vertex="1">
          <mxGeometry x="202" y="530" width="70" height="15" as="geometry" />
        </mxCell>
        <mxCell id="DROLrl2719gJAt6fMp63-139" value="&lt;span style=&quot;font-size: 10px;&quot;&gt;RDS&lt;/span&gt;" style="strokeWidth=1;shadow=0;dashed=0;align=center;html=1;shape=mxgraph.mockup.text.textBox;fontColor=#666666;align=left;fontSize=17;spacingLeft=4;spacingTop=-3;strokeColor=#666666;mainText=;fillColor=#7DD4FF;" parent="DROLrl2719gJAt6fMp63-6" vertex="1">
          <mxGeometry x="202" y="545" width="70" height="15" as="geometry" />
        </mxCell>
        <mxCell id="DROLrl2719gJAt6fMp63-140" value="&lt;span style=&quot;font-size: 10px;&quot;&gt;CDS&lt;/span&gt;" style="strokeWidth=1;shadow=0;dashed=0;align=center;html=1;shape=mxgraph.mockup.text.textBox;fontColor=#666666;align=left;fontSize=17;spacingLeft=4;spacingTop=-3;strokeColor=#666666;mainText=;fillColor=#7DD4FF;" parent="DROLrl2719gJAt6fMp63-6" vertex="1">
          <mxGeometry x="202" y="560" width="70" height="15" as="geometry" />
        </mxCell>
        <mxCell id="DROLrl2719gJAt6fMp63-141" value="&lt;span style=&quot;font-size: 10px;&quot;&gt;EDS&lt;/span&gt;" style="strokeWidth=1;shadow=0;dashed=0;align=center;html=1;shape=mxgraph.mockup.text.textBox;fontColor=#666666;align=left;fontSize=17;spacingLeft=4;spacingTop=-3;strokeColor=#666666;mainText=;fillColor=#7DD4FF;" parent="DROLrl2719gJAt6fMp63-6" vertex="1">
          <mxGeometry x="202" y="575" width="70" height="15" as="geometry" />
        </mxCell>
        <mxCell id="DROLrl2719gJAt6fMp63-85" value="EastGateway" style="shape=table;startSize=30;container=1;collapsible=0;childLayout=tableLayout;fontSize=16;align=left;verticalAlign=top;fillColor=none;strokeColor=none;fontColor=#4D4D4D;fontStyle=1;spacingLeft=6;spacing=0;resizable=1;" parent="1" vertex="1">
          <mxGeometry x="337" y="400" width="120" height="140" as="geometry" />
        </mxCell>
        <mxCell id="DROLrl2719gJAt6fMp63-86" value="" style="shape=tableRow;horizontal=0;startSize=0;swimlaneHead=0;swimlaneBody=0;strokeColor=inherit;top=0;left=0;bottom=0;right=0;collapsible=0;dropTarget=0;fillColor=none;points=[[0,0.5],[1,0.5]];portConstraint=eastwest;fontSize=12;" parent="DROLrl2719gJAt6fMp63-85" vertex="1">
          <mxGeometry y="30" width="120" height="22" as="geometry" />
        </mxCell>
        <mxCell id="DROLrl2719gJAt6fMp63-87" value="ELB Address" style="shape=partialRectangle;html=1;whiteSpace=wrap;connectable=0;strokeColor=inherit;overflow=hidden;fillColor=#1E4074;top=0;left=0;bottom=0;right=0;pointerEvents=1;fontSize=12;align=left;fontColor=#FFFFFF;gradientColor=none;spacingLeft=10;spacingRight=4;" parent="DROLrl2719gJAt6fMp63-86" vertex="1">
          <mxGeometry width="120" height="22" as="geometry">
            <mxRectangle width="120" height="22" as="alternateBounds" />
          </mxGeometry>
        </mxCell>
        <mxCell id="DROLrl2719gJAt6fMp63-88" value="" style="shape=tableRow;horizontal=0;startSize=0;swimlaneHead=0;swimlaneBody=0;strokeColor=inherit;top=0;left=0;bottom=0;right=0;collapsible=0;dropTarget=0;fillColor=none;points=[[0,0.5],[1,0.5]];portConstraint=eastwest;fontSize=12;" parent="DROLrl2719gJAt6fMp63-85" vertex="1">
          <mxGeometry y="52" width="120" height="21" as="geometry" />
        </mxCell>
        <mxCell id="DROLrl2719gJAt6fMp63-89" value="Virture Service" style="shape=partialRectangle;html=1;whiteSpace=wrap;connectable=0;strokeColor=inherit;overflow=hidden;fillColor=#3162AF;top=0;left=0;bottom=0;right=0;pointerEvents=1;fontSize=12;align=left;fontColor=#FFFFFF;gradientColor=none;spacingLeft=10;spacingRight=4;" parent="DROLrl2719gJAt6fMp63-88" vertex="1">
          <mxGeometry width="120" height="21" as="geometry">
            <mxRectangle width="120" height="21" as="alternateBounds" />
          </mxGeometry>
        </mxCell>
        <mxCell id="DROLrl2719gJAt6fMp63-90" value="" style="shape=tableRow;horizontal=0;startSize=0;swimlaneHead=0;swimlaneBody=0;strokeColor=inherit;top=0;left=0;bottom=0;right=0;collapsible=0;dropTarget=0;fillColor=none;points=[[0,0.5],[1,0.5]];portConstraint=eastwest;fontSize=12;" parent="DROLrl2719gJAt6fMp63-85" vertex="1">
          <mxGeometry y="73" width="120" height="37" as="geometry" />
        </mxCell>
        <mxCell id="DROLrl2719gJAt6fMp63-91" value="Gateway (Istiod,webhook)" style="shape=partialRectangle;html=1;whiteSpace=wrap;connectable=0;strokeColor=inherit;overflow=hidden;fillColor=#52a2d8;top=0;left=0;bottom=0;right=0;pointerEvents=1;fontSize=12;align=left;fontColor=#FFFFFF;gradientColor=none;spacingLeft=10;spacingRight=4;" parent="DROLrl2719gJAt6fMp63-90" vertex="1">
          <mxGeometry width="120" height="37" as="geometry">
            <mxRectangle width="120" height="37" as="alternateBounds" />
          </mxGeometry>
        </mxCell>
        <mxCell id="DROLrl2719gJAt6fMp63-92" value="" style="shape=tableRow;horizontal=0;startSize=0;swimlaneHead=0;swimlaneBody=0;strokeColor=inherit;top=0;left=0;bottom=0;right=0;collapsible=0;dropTarget=0;fillColor=none;points=[[0,0.5],[1,0.5]];portConstraint=eastwest;fontSize=12;" parent="DROLrl2719gJAt6fMp63-85" vertex="1">
          <mxGeometry y="110" width="120" height="30" as="geometry" />
        </mxCell>
        <mxCell id="DROLrl2719gJAt6fMp63-93" value="Gateway&lt;br&gt;(User service)" style="shape=partialRectangle;html=1;whiteSpace=wrap;connectable=0;strokeColor=inherit;overflow=hidden;fillColor=#7dbef2;top=0;left=0;bottom=0;right=0;pointerEvents=1;fontSize=12;align=left;fontColor=#FFFFFF;gradientColor=none;spacingLeft=10;spacingRight=4;" parent="DROLrl2719gJAt6fMp63-92" vertex="1">
          <mxGeometry width="120" height="30" as="geometry">
            <mxRectangle width="120" height="30" as="alternateBounds" />
          </mxGeometry>
        </mxCell>
        <mxCell id="DROLrl2719gJAt6fMp63-144" style="edgeStyle=orthogonalEdgeStyle;rounded=0;orthogonalLoop=1;jettySize=auto;html=1;entryX=1;entryY=0.5;entryDx=0;entryDy=0;entryPerimeter=0;fontSize=10;endArrow=classic;endFill=0;strokeColor=#FF0000;" parent="1" source="DROLrl2719gJAt6fMp63-90" target="DROLrl2719gJAt6fMp63-18" edge="1">
          <mxGeometry relative="1" as="geometry" />
        </mxCell>
        <mxCell id="DROLrl2719gJAt6fMp63-145" value="Endpoints" style="edgeStyle=orthogonalEdgeStyle;rounded=0;orthogonalLoop=1;jettySize=auto;html=1;entryX=1;entryY=0.5;entryDx=0;entryDy=0;entryPerimeter=0;fontSize=10;endArrow=classic;endFill=0;strokeColor=#FF0000;" parent="1" source="DROLrl2719gJAt6fMp63-16" target="DROLrl2719gJAt6fMp63-18" edge="1">
          <mxGeometry relative="1" as="geometry">
            <Array as="points">
              <mxPoint x="300" y="210" />
              <mxPoint x="300" y="310" />
            </Array>
          </mxGeometry>
        </mxCell>
        <mxCell id="DROLrl2719gJAt6fMp63-146" style="edgeStyle=orthogonalEdgeStyle;rounded=0;orthogonalLoop=1;jettySize=auto;html=1;exitX=0;exitY=0.5;exitDx=0;exitDy=0;exitPerimeter=0;fontSize=10;entryX=1;entryY=0.5;entryDx=0;entryDy=0;endArrow=classic;endFill=0;strokeColor=#FF0000;" parent="1" source="DROLrl2719gJAt6fMp63-109" target="DROLrl2719gJAt6fMp63-86" edge="1">
          <mxGeometry relative="1" as="geometry">
            <mxPoint x="480" y="400" as="targetPoint" />
            <Array as="points">
              <mxPoint x="530" y="310" />
              <mxPoint x="530" y="441" />
            </Array>
          </mxGeometry>
        </mxCell>
        <mxCell id="DROLrl2719gJAt6fMp63-151" style="edgeStyle=orthogonalEdgeStyle;rounded=0;orthogonalLoop=1;jettySize=auto;html=1;exitX=0;exitY=0.5;exitDx=0;exitDy=0;entryX=1;entryY=0.5;entryDx=0;entryDy=0;fontSize=10;dashed=1;" parent="1" source="DROLrl2719gJAt6fMp63-105" target="DROLrl2719gJAt6fMp63-92" edge="1">
          <mxGeometry relative="1" as="geometry" />
        </mxCell>
        <mxCell id="DROLrl2719gJAt6fMp63-154" style="edgeStyle=orthogonalEdgeStyle;rounded=0;orthogonalLoop=1;jettySize=auto;html=1;exitX=0;exitY=0.5;exitDx=0;exitDy=0;entryX=1.007;entryY=0.4;entryDx=0;entryDy=0;entryPerimeter=0;fontSize=10;dashed=1;" parent="1" source="DROLrl2719gJAt6fMp63-92" target="DROLrl2719gJAt6fMp63-129" edge="1">
          <mxGeometry relative="1" as="geometry" />
        </mxCell>
        <mxCell id="DROLrl2719gJAt6fMp63-156" style="edgeStyle=orthogonalEdgeStyle;rounded=0;orthogonalLoop=1;jettySize=auto;html=1;exitX=0.5;exitY=1;exitDx=0;exitDy=0;exitPerimeter=0;entryX=0;entryY=0.5;entryDx=0;entryDy=0;entryPerimeter=0;fontSize=10;endArrow=diamondThin;endFill=1;strokeColor=#00CC00;" parent="1" source="DROLrl2719gJAt6fMp63-111" target="DROLrl2719gJAt6fMp63-117" edge="1">
          <mxGeometry relative="1" as="geometry">
            <Array as="points">
              <mxPoint x="260" y="515" />
              <mxPoint x="260" y="690" />
            </Array>
          </mxGeometry>
        </mxCell>
        <mxCell id="DROLrl2719gJAt6fMp63-157" value="http" style="edgeLabel;html=1;align=center;verticalAlign=middle;resizable=0;points=[];fontSize=10;" parent="DROLrl2719gJAt6fMp63-156" vertex="1" connectable="0">
          <mxGeometry x="-0.2355" y="-1" relative="1" as="geometry">
            <mxPoint as="offset" />
          </mxGeometry>
        </mxCell>
      </root>
    </mxGraphModel>
  </diagram>
</mxfile>
